<svg xmlns="http://www.w3.org/2000/svg" xmlns:xlink="http://www.w3.org/1999/xlink" width="500" zoomAndPan="magnify" viewBox="0 0 375 374.999991" height="500" preserveAspectRatio="xMidYMid meet" version="1.2"><defs><clipPath id="b45f0201af"><path d="M 17.046875 0 L 345 0 L 345 338 L 17.046875 338 Z M 17.046875 0 "/></clipPath></defs><g id="921e3a9313"><path style=" stroke:none;fill-rule:nonzero;fill:#ffffff;fill-opacity:1;" d="M 357.945312 206.15625 C 357.945312 294.347656 291.800781 366.148438 208.128906 373.496094 C 208.128906 373.496094 100.148438 376.324219 64.535156 372.929688 C 50.964844 371.234375 39.660156 362.753906 34.570312 350.316406 C 39.660156 352.578125 44.746094 354.273438 50.398438 354.839844 C 62.273438 355.96875 82.058594 356.535156 109.761719 356.535156 C 150.464844 356.535156 195.125 355.40625 195.125 355.40625 L 195.691406 355.40625 C 240.355469 351.449219 281.625 331.09375 311.019531 297.742188 C 336.460938 269.472656 352.855469 233.859375 357.378906 196.546875 C 357.945312 199.371094 357.945312 202.765625 357.945312 206.15625 Z M 357.945312 206.15625 "/><g clip-rule="nonzero" clip-path="url(#b45f0201af)"><path style=" stroke:none;fill-rule:nonzero;fill:#ffffff;fill-opacity:1;" d="M 344.941406 169.972656 C 344.941406 258.167969 278.796875 329.964844 194.5625 336.75 C 194.5625 336.75 86.582031 339.574219 50.964844 336.183594 C 31.746094 334.488281 17.609375 316.398438 17.046875 296.042969 L 17.609375 41.644531 C 18.175781 21.289062 32.875 3.199219 52.097656 1.503906 C 87.710938 -1.324219 195.691406 2.070312 195.691406 2.070312 C 279.363281 9.417969 344.941406 81.78125 344.941406 169.972656 Z M 344.941406 169.972656 "/></g></g></svg>