<svg xmlns="http://www.w3.org/2000/svg" xmlns:xlink="http://www.w3.org/1999/xlink" width="500" zoomAndPan="magnify" viewBox="0 0 375 374.999991" height="500" preserveAspectRatio="xMidYMid meet" version="1.2"><defs><clipPath id="1a292ebdf8"><path d="M 56.816406 103.460938 L 317.816406 103.460938 L 317.816406 268 L 56.816406 268 Z M 56.816406 103.460938 "/></clipPath></defs><g id="ca66402e9f"><g clip-rule="nonzero" clip-path="url(#1a292ebdf8)"><path style=" stroke:none;fill-rule:nonzero;fill:#ffffff;fill-opacity:1;" d="M 109.027344 103.460938 L 114.121094 103.460938 L 118.257812 103.882812 C 118.3125 103.890625 118.367188 103.902344 118.417969 103.925781 C 118.667969 104.050781 119.117188 104.15625 119.765625 104.25 C 122.203125 104.59375 124.726562 105.558594 127.339844 107.140625 C 131.308594 109.550781 132.277344 113.972656 131.828125 118.378906 C 131.777344 118.890625 131.820312 119.183594 132.265625 119.503906 C 135.039062 121.484375 137.597656 123.632812 139.945312 125.957031 C 140.089844 126.097656 140.257812 126.167969 140.457031 126.167969 L 233.589844 126.167969 C 233.90625 126.167969 234.175781 126.054688 234.394531 125.828125 C 236.613281 123.574219 239.015625 121.535156 241.605469 119.714844 C 241.847656 119.542969 241.96875 119.308594 241.964844 119.011719 C 241.960938 116.839844 241.742188 114.265625 242.367188 112.335938 C 244.65625 105.273438 254.671875 103.847656 260.949219 103.460938 L 264.976562 103.460938 C 271.410156 104.027344 279.914062 105.03125 282.648438 111.996094 C 283.449219 114.035156 283.226562 116.945312 283.355469 119.261719 C 283.363281 119.386719 283.417969 119.492188 283.523438 119.566406 C 290.972656 125.0625 296.253906 131.453125 299.144531 140.261719 C 299.65625 141.820312 300.246094 144.316406 300.914062 147.75 C 306.125 174.550781 311.367188 201.34375 316.652344 228.132812 C 317.136719 230.597656 317.515625 233.085938 317.785156 235.589844 L 317.785156 238.378906 C 316.839844 252.195312 307.730469 263.859375 294.035156 266.847656 C 292.257812 267.238281 290.375 267.320312 288.507812 267.410156 L 287.640625 267.410156 C 278.976562 266.796875 271.03125 261.613281 266.738281 254.074219 C 258.757812 240.042969 250.894531 225.945312 243.148438 211.777344 C 243.121094 211.730469 243.082031 211.703125 243.03125 211.695312 C 242.980469 211.6875 242.9375 211.703125 242.898438 211.738281 C 235.976562 218.191406 228.03125 221.246094 218.679688 219.359375 C 211.308594 217.871094 205.445312 212.886719 201.667969 206.558594 C 201.535156 206.332031 201.335938 206.21875 201.070312 206.21875 L 172.21875 206.21875 C 172.015625 206.21875 171.859375 206.304688 171.753906 206.476562 C 166.363281 215.109375 158.457031 220.3125 148.222656 219.835938 C 141.574219 219.527344 135.585938 216.714844 131.125 211.785156 C 131.046875 211.703125 130.957031 211.667969 130.847656 211.679688 C 130.738281 211.691406 130.65625 211.746094 130.605469 211.839844 C 122.753906 225.9375 114.9375 240.019531 107.148438 254.085938 C 99.523438 267.851562 82.820312 271.304688 70.003906 262.347656 C 62.410156 257.039062 58.023438 249.742188 56.847656 240.457031 L 56.847656 234.578125 C 57.046875 232.605469 57.269531 230.976562 57.519531 229.695312 C 62.734375 202.769531 67.914062 175.839844 73.058594 148.902344 C 73.761719 145.238281 74.304688 142.734375 74.695312 141.390625 C 77.257812 132.570312 82.339844 125.472656 89.941406 120.097656 C 90.207031 119.914062 90.335938 119.660156 90.332031 119.335938 C 90.3125 117.882812 90.363281 116.40625 90.480469 114.902344 C 91.214844 105.628906 101.769531 104.109375 109.027344 103.460938 Z M 263.746094 142.40625 C 264.28125 142.332031 264.800781 142.210938 265.308594 142.035156 C 265.820312 141.859375 266.304688 141.632812 266.769531 141.359375 C 267.234375 141.085938 267.667969 140.769531 268.070312 140.40625 C 268.476562 140.046875 268.839844 139.648438 269.164062 139.210938 C 269.492188 138.777344 269.773438 138.3125 270.007812 137.820312 C 270.242188 137.328125 270.429688 136.820312 270.566406 136.289062 C 270.703125 135.757812 270.789062 135.21875 270.820312 134.671875 C 270.855469 134.125 270.835938 133.578125 270.761719 133.035156 C 270.691406 132.492188 270.566406 131.960938 270.390625 131.441406 C 270.214844 130.921875 269.992188 130.421875 269.722656 129.949219 C 269.449219 129.472656 269.136719 129.027344 268.78125 128.613281 C 268.421875 128.203125 268.03125 127.828125 267.601562 127.496094 C 267.171875 127.160156 266.71875 126.871094 266.234375 126.628906 C 265.75 126.386719 265.246094 126.191406 264.726562 126.050781 C 264.207031 125.90625 263.679688 125.816406 263.140625 125.78125 C 262.605469 125.746094 262.070312 125.761719 261.535156 125.832031 C 261.003906 125.90625 260.480469 126.027344 259.972656 126.203125 C 259.464844 126.378906 258.976562 126.605469 258.511719 126.878906 C 258.046875 127.152344 257.613281 127.46875 257.210938 127.832031 C 256.804688 128.195312 256.441406 128.589844 256.117188 129.027344 C 255.789062 129.460938 255.507812 129.925781 255.273438 130.417969 C 255.039062 130.910156 254.851562 131.417969 254.714844 131.949219 C 254.578125 132.480469 254.492188 133.019531 254.460938 133.566406 C 254.425781 134.113281 254.445312 134.660156 254.519531 135.203125 C 254.589844 135.746094 254.714844 136.277344 254.890625 136.796875 C 255.066406 137.316406 255.289062 137.816406 255.558594 138.292969 C 255.832031 138.765625 256.144531 139.210938 256.503906 139.625 C 256.859375 140.035156 257.25 140.410156 257.679688 140.746094 C 258.109375 141.078125 258.5625 141.367188 259.046875 141.609375 C 259.53125 141.855469 260.035156 142.046875 260.554688 142.1875 C 261.074219 142.332031 261.601562 142.421875 262.140625 142.457031 C 262.679688 142.492188 263.214844 142.476562 263.746094 142.40625 Z M 93.085938 146.652344 C 92.789062 146.902344 92.640625 147.222656 92.640625 147.609375 L 92.640625 156.777344 C 92.640625 156.925781 92.679688 157.0625 92.757812 157.183594 C 93.507812 158.394531 94.398438 158.828125 95.898438 158.835938 C 99.191406 158.859375 102.496094 158.878906 105.816406 158.894531 C 105.949219 158.894531 106.019531 158.960938 106.019531 159.097656 L 106.144531 170.875 C 106.144531 170.953125 106.167969 171.027344 106.214844 171.09375 C 106.957031 172.175781 107.773438 172.617188 109.171875 172.625 C 110.996094 172.632812 112.816406 172.660156 114.632812 172.714844 C 116.851562 172.773438 118.894531 172.335938 118.851562 169.761719 C 118.785156 166.191406 118.777344 162.628906 118.835938 159.066406 C 118.835938 158.933594 118.902344 158.867188 119.035156 158.867188 C 122.246094 158.777344 125.457031 158.789062 128.667969 158.898438 C 129.410156 158.921875 131.035156 158.484375 131.488281 157.894531 C 132.460938 156.632812 132.011719 153.347656 132.007812 152.023438 C 132 149.53125 133.015625 145.863281 129.097656 145.824219 C 125.679688 145.789062 122.339844 145.78125 119.082031 145.804688 C 118.960938 145.804688 118.859375 145.765625 118.769531 145.679688 C 118.683594 145.597656 118.640625 145.496094 118.632812 145.375 C 118.5 141.71875 118.429688 138.070312 118.421875 134.433594 C 118.417969 132.617188 117.183594 131.476562 115.414062 131.496094 C 113.117188 131.523438 110.828125 131.554688 108.542969 131.59375 C 107.003906 131.621094 105.78125 132.414062 105.695312 134.105469 C 105.523438 137.582031 105.78125 140.585938 105.695312 145.578125 C 105.691406 145.710938 105.625 145.78125 105.488281 145.785156 C 102.277344 145.808594 99.097656 145.8125 95.941406 145.796875 C 94.785156 145.789062 93.902344 145.976562 93.085938 146.652344 Z M 242.363281 162.273438 C 242.902344 162.265625 243.433594 162.203125 243.957031 162.089844 C 244.484375 161.972656 244.996094 161.808594 245.488281 161.589844 C 245.980469 161.375 246.449219 161.109375 246.890625 160.796875 C 247.335938 160.488281 247.742188 160.136719 248.117188 159.742188 C 248.492188 159.347656 248.824219 158.921875 249.117188 158.464844 C 249.40625 158.003906 249.652344 157.519531 249.851562 157.011719 C 250.046875 156.5 250.195312 155.976562 250.292969 155.4375 C 250.390625 154.902344 250.433594 154.359375 250.425781 153.8125 C 250.414062 153.261719 250.355469 152.722656 250.242188 152.1875 C 250.128906 151.652344 249.964844 151.132812 249.75 150.632812 C 249.535156 150.128906 249.277344 149.652344 248.972656 149.203125 C 248.664062 148.75 248.320312 148.335938 247.933594 147.953125 C 247.546875 147.574219 247.125 147.234375 246.675781 146.9375 C 246.222656 146.640625 245.746094 146.390625 245.246094 146.191406 C 244.746094 145.988281 244.230469 145.839844 243.703125 145.738281 C 243.171875 145.640625 242.640625 145.597656 242.101562 145.605469 C 241.5625 145.613281 241.03125 145.675781 240.503906 145.789062 C 239.980469 145.90625 239.46875 146.070312 238.976562 146.289062 C 238.480469 146.503906 238.015625 146.769531 237.570312 147.082031 C 237.128906 147.390625 236.71875 147.742188 236.347656 148.136719 C 235.972656 148.53125 235.640625 148.957031 235.347656 149.414062 C 235.054688 149.875 234.808594 150.359375 234.613281 150.867188 C 234.414062 151.378906 234.265625 151.902344 234.171875 152.441406 C 234.074219 152.976562 234.03125 153.519531 234.039062 154.066406 C 234.046875 154.617188 234.109375 155.15625 234.222656 155.691406 C 234.335938 156.226562 234.5 156.746094 234.710938 157.25 C 234.925781 157.75 235.1875 158.226562 235.492188 158.675781 C 235.796875 159.128906 236.144531 159.542969 236.53125 159.925781 C 236.917969 160.304688 237.335938 160.644531 237.789062 160.941406 C 238.242188 161.238281 238.71875 161.488281 239.21875 161.6875 C 239.71875 161.890625 240.234375 162.042969 240.761719 162.140625 C 241.292969 162.238281 241.824219 162.28125 242.363281 162.273438 Z M 283.589844 162.316406 C 284.128906 162.3125 284.660156 162.253906 285.1875 162.144531 C 285.714844 162.03125 286.226562 161.867188 286.722656 161.652344 C 287.21875 161.4375 287.691406 161.175781 288.136719 160.867188 C 288.582031 160.558594 288.992188 160.207031 289.371094 159.816406 C 289.75 159.425781 290.085938 159 290.382812 158.539062 C 290.675781 158.082031 290.925781 157.597656 291.128906 157.085938 C 291.328125 156.578125 291.480469 156.054688 291.582031 155.511719 C 291.679688 154.972656 291.730469 154.429688 291.722656 153.878906 C 291.71875 153.332031 291.660156 152.785156 291.550781 152.25 C 291.441406 151.710938 291.28125 151.1875 291.070312 150.683594 C 290.859375 150.175781 290.605469 149.699219 290.300781 149.242188 C 289.996094 148.789062 289.652344 148.371094 289.269531 147.984375 C 288.882812 147.597656 288.464844 147.257812 288.015625 146.953125 C 287.566406 146.652344 287.089844 146.398438 286.589844 146.195312 C 286.089844 145.988281 285.574219 145.832031 285.046875 145.730469 C 284.515625 145.628906 283.980469 145.578125 283.441406 145.585938 C 282.902344 145.589844 282.371094 145.648438 281.84375 145.757812 C 281.316406 145.871094 280.804688 146.035156 280.308594 146.25 C 279.8125 146.464844 279.339844 146.726562 278.894531 147.035156 C 278.449219 147.34375 278.039062 147.695312 277.660156 148.085938 C 277.28125 148.476562 276.945312 148.902344 276.648438 149.363281 C 276.355469 149.820312 276.105469 150.304688 275.902344 150.816406 C 275.703125 151.324219 275.550781 151.847656 275.449219 152.390625 C 275.351562 152.929688 275.300781 153.472656 275.308594 154.023438 C 275.3125 154.570312 275.367188 155.117188 275.480469 155.652344 C 275.589844 156.191406 275.75 156.714844 275.960938 157.21875 C 276.171875 157.726562 276.425781 158.203125 276.730469 158.660156 C 277.035156 159.113281 277.378906 159.53125 277.761719 159.917969 C 278.148438 160.304688 278.566406 160.644531 279.015625 160.949219 C 279.464844 161.25 279.941406 161.503906 280.441406 161.707031 C 280.941406 161.914062 281.457031 162.066406 281.984375 162.171875 C 282.515625 162.273438 283.050781 162.324219 283.589844 162.316406 Z M 216.84375 155.609375 C 216.839844 155.167969 216.757812 154.746094 216.585938 154.335938 C 216.417969 153.929688 216.175781 153.570312 215.863281 153.257812 C 215.550781 152.945312 215.191406 152.707031 214.78125 152.539062 C 214.375 152.371094 213.949219 152.285156 213.507812 152.289062 L 203.277344 152.304688 C 202.835938 152.304688 202.410156 152.390625 202.003906 152.5625 C 201.597656 152.730469 201.238281 152.972656 200.925781 153.285156 C 200.613281 153.597656 200.375 153.957031 200.207031 154.367188 C 200.039062 154.773438 199.953125 155.199219 199.953125 155.640625 L 199.957031 155.941406 C 199.957031 156.382812 200.042969 156.804688 200.210938 157.214844 C 200.378906 157.621094 200.621094 157.980469 200.933594 158.292969 C 201.246094 158.605469 201.609375 158.84375 202.015625 159.011719 C 202.425781 159.179688 202.847656 159.265625 203.289062 159.261719 L 213.519531 159.246094 C 213.960938 159.246094 214.386719 159.160156 214.792969 158.988281 C 215.199219 158.820312 215.558594 158.578125 215.871094 158.265625 C 216.183594 157.953125 216.421875 157.59375 216.589844 157.183594 C 216.761719 156.777344 216.84375 156.351562 216.84375 155.910156 Z M 160.1875 152.425781 C 156.734375 152.488281 156.035156 157.007812 158.652344 158.660156 C 159.261719 159.046875 160.261719 159.246094 161.652344 159.253906 C 164.683594 159.273438 167.714844 159.246094 170.746094 159.167969 C 175.242188 159.054688 174.808594 152.324219 170.671875 152.328125 C 167.175781 152.332031 163.679688 152.367188 160.1875 152.425781 Z M 264.085938 165.492188 C 259.015625 164.464844 253.839844 169.023438 254.425781 174.34375 C 254.941406 179.027344 258.632812 182.589844 263.582031 182.09375 C 272.835938 181.167969 273.523438 167.402344 264.085938 165.492188 Z M 151.613281 172.601562 C 142.574219 170.996094 134 178.398438 133.445312 187.339844 C 132.90625 196.0625 139.128906 203.660156 147.964844 204.414062 C 159.0625 205.359375 167.667969 194.574219 164.476562 183.875 C 162.6875 177.898438 157.691406 173.679688 151.613281 172.601562 Z M 208.199219 186.589844 C 206.621094 200.875 223.367188 210.222656 234.429688 200.511719 C 244.839844 191.375 239.460938 174.125 225.726562 172.515625 C 217.109375 171.503906 209.160156 177.894531 208.199219 186.589844 Z M 208.199219 186.589844 "/></g></g></svg>