<svg xmlns="http://www.w3.org/2000/svg" xmlns:xlink="http://www.w3.org/1999/xlink" width="500" zoomAndPan="magnify" viewBox="0 0 375 374.999991" height="500" preserveAspectRatio="xMidYMid meet" version="1.2"><defs><clipPath id="e84cd61f39"><path d="M 50.242188 68 L 324.742188 68 L 324.742188 309 L 50.242188 309 Z M 50.242188 68 "/></clipPath></defs><g id="a5db8c04db"><g clip-rule="nonzero" clip-path="url(#e84cd61f39)"><path style=" stroke:none;fill-rule:evenodd;fill:#ffffff;fill-opacity:1;" d="M 145.152344 168.253906 C 153.441406 167.601562 161.625 167.71875 169.660156 171.378906 C 184.003906 177.90625 192.121094 190.289062 203.449219 200.386719 C 211.519531 207.578125 221.46875 211.167969 231.445312 214.8125 C 236.574219 216.6875 242.347656 218.933594 247.875 219.253906 C 250.078125 219.382812 249.230469 215.183594 249.296875 213.886719 C 249.5625 208.746094 250.914062 203.917969 255.148438 200.632812 C 259.636719 197.152344 265.523438 196.984375 270.945312 196.523438 C 274.363281 196.226562 278.625 196.1875 280.425781 192.699219 C 282.304688 189.066406 279.914062 184.5 277.871094 181.167969 C 279.851562 181.410156 281.898438 181.28125 282.949219 181.214844 C 293.824219 180.53125 305.664062 178.347656 315.105469 172.671875 C 317.871094 171.011719 320.460938 169.046875 322.757812 166.78125 C 323.09375 166.445312 324.503906 165.335938 324.347656 164.726562 C 324.222656 164.261719 321.152344 164.90625 320.820312 164.929688 C 316.496094 165.25 312.113281 165.300781 307.789062 165.078125 C 297.058594 164.523438 286.214844 163.144531 275.726562 160.816406 C 249.515625 155 223.980469 146.675781 197.703125 140.96875 C 177.882812 136.667969 158.21875 132.152344 138.78125 126.328125 C 138.058594 126.113281 137.285156 125.921875 136.472656 125.746094 C 137.089844 124.058594 137.636719 122.351562 138.070312 120.625 C 139.726562 114.046875 137.964844 107.617188 137.292969 101.050781 C 137.128906 99.441406 138.292969 97.734375 138.207031 96.011719 C 137.953125 90.882812 134.851562 85.492188 130.601562 82.671875 C 126.476562 79.929688 121.660156 79.503906 116.929688 78.582031 C 111.554688 77.527344 106.09375 75.992188 100.902344 74.261719 C 92.457031 71.445312 83.105469 64.476562 74.230469 70.429688 C 69.554688 73.558594 70 83.285156 75.78125 85.074219 C 79.8125 86.316406 84.933594 83.402344 88.964844 82.96875 C 99.929688 81.792969 107.253906 86.984375 111.515625 96.640625 C 112.441406 98.738281 113.449219 100.75 114.710938 102.667969 C 114.804688 102.804688 116.050781 104.210938 115.957031 104.398438 C 115.570312 105.175781 113.613281 105.789062 112.917969 106.121094 C 110.101562 107.460938 107.050781 108.335938 104.527344 110.238281 C 102.496094 111.765625 101.050781 114.101562 100.871094 116.65625 C 100.644531 119.839844 102.398438 122.628906 99.539062 123.441406 C 99.878906 122.972656 100.15625 122.46875 100.347656 121.925781 C 100.628906 121.136719 100.542969 119.957031 99.429688 120.09375 C 98.859375 120.164062 98.390625 120.621094 98.027344 121.035156 C 97.910156 121.167969 97.796875 121.308594 97.699219 121.457031 C 97.6875 121.46875 97.566406 121.675781 97.554688 121.671875 C 97.546875 121.667969 97.570312 121.109375 97.5625 121.0625 C 97.46875 120.445312 96.828125 120.46875 96.351562 120.621094 C 95.6875 120.835938 95.152344 121.253906 94.710938 121.773438 C 94.460938 121.414062 94.050781 121.179688 93.464844 121.191406 C 92.457031 121.207031 91.4375 121.683594 90.523438 122.207031 C 83.101562 118.695312 85.746094 109.03125 80.65625 103.246094 C 76.410156 98.421875 68.984375 99.582031 63.316406 98.773438 C 61.699219 98.535156 59.25 96.941406 57.667969 97.441406 C 56.394531 97.847656 57.175781 99.964844 56.230469 100.300781 C 55.089844 100.707031 53.886719 98.339844 53.105469 98.558594 C 52.671875 98.683594 53.648438 101.1875 53.199219 101.523438 C 52.714844 101.890625 50.921875 100.4375 50.671875 100.757812 C 50.429688 101.050781 50.878906 102.601562 50.945312 102.9375 C 51.398438 105.347656 52.871094 107.273438 53.335938 109.683594 C 53.683594 111.480469 53.742188 113.390625 54.332031 115.125 C 54.761719 116.382812 55.890625 117.550781 55.933594 118.921875 C 55.976562 120.496094 53.609375 121.691406 54.15625 123.335938 C 54.484375 124.3125 56.085938 124.472656 56.734375 125.246094 C 57.425781 126.070312 56.617188 127.253906 56.976562 128.179688 C 57.234375 128.84375 58.136719 128.882812 58.375 129.503906 C 58.980469 131.097656 57.878906 133.023438 59.128906 134.53125 C 60.6875 136.414062 63.953125 136.523438 66.160156 136.789062 C 66.324219 136.808594 67.234375 136.851562 67.972656 136.953125 C 67.679688 137.121094 67.492188 137.382812 67.652344 137.742188 C 67.65625 137.757812 67.664062 137.769531 67.667969 137.78125 C 66.953125 137.867188 66.242188 138.097656 65.617188 138.425781 C 65.113281 138.6875 64.761719 139.179688 65.34375 139.59375 C 65.601562 139.777344 65.898438 139.902344 66.210938 139.992188 C 65.078125 141.070312 64.066406 142.273438 63.074219 143.480469 C 58.582031 148.964844 54.8125 155.839844 58.566406 162.847656 C 61.039062 167.46875 65.621094 166.445312 69.042969 169.109375 C 70.40625 170.167969 70.71875 172.09375 71.695312 173.453125 C 72.882812 175.113281 74.828125 176.167969 76.554688 177.171875 C 78.101562 178.074219 79.722656 178.847656 81.40625 179.460938 C 82.269531 179.777344 84.105469 179.113281 84.105469 180.03125 C 84.105469 180.144531 82.839844 180.570312 82.769531 180.601562 C 81.175781 181.335938 79.523438 181.929688 77.871094 182.515625 C 75.136719 183.484375 70.414062 186.746094 67.429688 186.332031 C 64.347656 185.902344 60.972656 180.738281 57.675781 182.128906 C 53.972656 183.691406 53.9375 191.101562 53.964844 194.308594 C 53.972656 195.628906 53.957031 197.71875 55.039062 198.695312 C 56.074219 199.625 58.011719 199.453125 59.289062 199.546875 C 65.117188 199.964844 68.152344 197.417969 73.355469 195.609375 C 80.109375 193.261719 87.484375 194.953125 94.433594 194.027344 C 98.335938 193.507812 102.882812 192.726562 106.453125 190.996094 C 107.421875 190.527344 109.207031 187.878906 110.027344 187.832031 C 112.167969 187.71875 118.167969 192.046875 119.289062 193.792969 C 119.390625 193.949219 113.949219 194.980469 113.34375 195.167969 C 109.726562 196.277344 106.351562 198.816406 103.144531 200.765625 C 99.351562 203.070312 96.222656 206.132812 92.675781 208.75 C 85.050781 214.378906 71.070312 221.546875 73.933594 233.5 C 75.8125 241.34375 85.921875 244.214844 92.757812 245.640625 C 101.632812 247.492188 111.425781 249.667969 120.511719 249.414062 C 128.402344 249.195312 136.351562 246.546875 144.265625 247.890625 C 153.535156 249.464844 157.328125 262.683594 161.953125 269.53125 C 163.917969 272.4375 167.578125 276.898438 171.53125 276.800781 C 175.871094 276.695312 173.554688 268.710938 173.25 266.375 C 172.703125 262.1875 172.007812 257.871094 170.398438 253.9375 C 168.980469 250.476562 166.816406 247.445312 165.667969 243.839844 C 165.320312 242.761719 165.179688 241.496094 165.023438 240.214844 C 170.367188 243.429688 176.316406 245.617188 181.691406 248.789062 C 185.25 250.890625 187.949219 254.523438 191.695312 256.210938 C 195.5625 257.957031 200.003906 257.179688 203.863281 259.078125 C 208.9375 261.578125 213.15625 265.960938 218.035156 268.878906 C 227.285156 274.417969 237.226562 278.8125 246.65625 284.0625 C 252.851562 287.507812 259.507812 290.796875 264.628906 295.800781 C 267.785156 298.886719 269.546875 303.078125 272.996094 305.890625 C 275.660156 308.054688 279.898438 310.511719 282.285156 306.570312 C 287.246094 298.386719 277.792969 290.871094 275.101562 284.152344 C 273.328125 279.710938 273.3125 274.746094 268.933594 271.859375 C 265.769531 269.777344 261.9375 271.050781 258.417969 270.878906 C 254.589844 270.695312 250.492188 269.105469 247.226562 267.160156 C 236.40625 260.714844 229.539062 250.070312 220.089844 242.066406 C 215.160156 237.886719 208.828125 237.058594 203.839844 233.253906 C 200.726562 230.878906 198.710938 227.585938 196.351562 224.519531 C 192.828125 219.9375 189.191406 215.445312 185.195312 211.257812 C 180.785156 206.636719 173.96875 204.019531 170.035156 199.101562 C 168.070312 196.644531 167.015625 193.546875 165.015625 191.054688 C 158.710938 183.191406 151.546875 176.050781 145.152344 168.253906 Z M 156.230469 233.738281 C 155.652344 233.855469 155.117188 233.96875 154.652344 234.03125 C 149.128906 234.808594 143.515625 235.046875 138.082031 233.582031 C 132.207031 231.996094 126.90625 229.304688 121.339844 226.945312 C 119.46875 226.15625 117.589844 225.347656 115.644531 224.761719 C 114.550781 224.433594 112.292969 224.054688 112.292969 224.054688 C 112.292969 224.054688 114.320312 224.042969 115.328125 223.992188 C 117.558594 223.878906 119.78125 223.671875 122.003906 223.492188 C 128.453125 222.96875 134.9375 222.382812 141.332031 221.394531 C 141.800781 221.324219 142.269531 221.25 142.734375 221.171875 C 147.210938 225.394531 151.554688 229.777344 156.230469 233.738281 Z M 156.230469 233.738281 "/></g></g></svg>