<svg xmlns="http://www.w3.org/2000/svg" xmlns:xlink="http://www.w3.org/1999/xlink" width="500" zoomAndPan="magnify" viewBox="0 0 375 374.999991" height="500" preserveAspectRatio="xMidYMid meet" version="1.2"><defs><clipPath id="9fddb28e9e"><path d="M 142 112.980469 L 224 112.980469 L 224 244 L 142 244 Z M 142 112.980469 "/></clipPath></defs><g id="42c8b6921c"><g style="fill:#ffffff;fill-opacity:1;"><g transform="translate(48.784496, 237.105068)"><path style="stroke:none" d="M 7.15625 -50.046875 L 7.15625 -64.34375 L 17.15625 -64.34375 L 17.15625 -128.703125 L 60.0625 -128.703125 L 60.0625 -114.40625 L 31.453125 -114.40625 L 31.453125 0 L 60.0625 0 L 60.0625 14.296875 L 17.15625 14.296875 L 17.15625 -50.046875 Z M 7.15625 -50.046875 "/></g></g><g style="fill:#ffffff;fill-opacity:1;"><g transform="translate(115.996439, 237.105068)"><path style="stroke:none" d=""/></g></g><g style="fill:#ffffff;fill-opacity:1;"><g transform="translate(187.497504, 237.105068)"><path style="stroke:none" d=""/></g></g><g style="fill:#ffffff;fill-opacity:1;"><g transform="translate(258.998571, 237.105068)"><path style="stroke:none" d="M 35.75 0 L 35.75 -114.40625 L 7.15625 -114.40625 L 7.15625 -128.703125 L 50.046875 -128.703125 L 50.046875 -64.34375 L 60.0625 -64.34375 L 60.0625 -50.046875 L 50.046875 -50.046875 L 50.046875 14.296875 L 7.15625 14.296875 L 7.15625 0 Z M 35.75 0 "/></g></g><g clip-rule="nonzero" clip-path="url(#9fddb28e9e)"><path style=" stroke:none;fill-rule:nonzero;fill:#ffffff;fill-opacity:1;" d="M 208.773438 184.421875 C 234.574219 149.644531 194.542969 146.007812 186.371094 134.605469 L 186.367188 221.675781 C 186.335938 228.980469 180.972656 236.796875 172.277344 241.058594 C 161.042969 246.570312 148.515625 244.058594 144.296875 235.457031 C 140.078125 226.851562 145.761719 215.410156 156.996094 209.898438 C 163.894531 206.515625 173.4375 206.160156 179.085938 208.378906 L 180.035156 112.996094 L 186.371094 112.996094 C 191.910156 125.882812 209.878906 131.851562 216.914062 139.84375 C 233.183594 158.316406 215.03125 180.847656 208.773438 184.421875 Z M 208.773438 184.421875 "/></g></g></svg>